<?xml version="1.0" encoding="UTF-8"?>
<!-- Creator: CorelDRAW -->
<svg xmlns="http://www.w3.org/2000/svg" xmlns:xlink="http://www.w3.org/1999/xlink" xmlns:xodm="http://www.corel.com/coreldraw/odm/2003" xml:space="preserve" width="300px" height="295px" version="1.1" style="shape-rendering:geometricPrecision; text-rendering:geometricPrecision; image-rendering:optimizeQuality; fill-rule:evenodd; clip-rule:evenodd" viewBox="0 0 47.56 46.7">
 <defs>
  <style type="text/css">
   <![CDATA[
    .fil0 {fill:#0071C5;fill-rule:nonzero}
   ]]>
  </style>
 </defs>
 <g id="Layer_x0020_1">
  <metadata id="CorelCorpID_0Corel-Layer"></metadata>
  <path class="fil0" d="M5.98 15.3c0,-2.57 -0.85,-3.69 -2.99,-3.69 -2.12,0 -2.99,1.1 -2.99,3.69l0 5.94c0,2.54 0.87,3.63 2.91,3.67l1.2 1.71 1.57 -1.12 -0.77 -1.09c0.75,-0.55 1.07,-1.59 1.07,-3.17l0 -5.94zm-3.58 -0.34c0,-0.77 0.13,-1.1 0.59,-1.1 0.48,0 0.61,0.35 0.61,1.1l0 6.61c0,0.74 -0.13,1.09 -0.61,1.09 -0.46,0 -0.59,-0.35 -0.59,-1.11l0 -6.59zm7.69 9.95c2.18,0 2.97,-1.22 2.97,-3.25l0 -9.85 -2.38 0 0 10c0,0.5 -0.15,0.81 -0.59,0.81 -0.42,0 -0.61,-0.33 -0.61,-0.81l0 -10 -2.4 0 0 9.87c0,2.01 0.83,3.23 3.01,3.23zm10.52 -0.19l-2.07 -12.91 -2.69 0 -2.09 12.91 2.4 0 0.2 -1.88 1.64 0 0.21 1.88 2.4 0zm-3.45 -9.15l0.05 0 0.56 5 -1.17 0 0.56 -5zm9.18 3.21c0.74,-0.44 1.17,-1.27 1.17,-2.71l0 -1.11c0,-2.38 -1.17,-3.15 -2.97,-3.15l-3.07 0 0 12.91 2.38 0 0 -5.49 0.24 0 1.5 5.49 2.43 0 -1.68 -5.94zm-1.97 -4.52c0.39,0 0.76,0.26 0.76,0.8l0 0.86c0,0.59 -0.35,0.89 -0.76,0.89l-0.52 0 0 -2.55 0.52 0zm7.82 10.46l0 -10.62 1.68 0 0 -2.29 -5.72 0 0 2.29 1.68 0 0 10.62 2.36 0zm5.33 0.19c2.18,0 2.97,-1.22 2.97,-3.25l0 -9.85 -2.38 0 0 10c0,0.5 -0.14,0.81 -0.59,0.81 -0.42,0 -0.61,-0.33 -0.61,-0.81l0 -10 -2.39 0 0 9.87c0,2.01 0.83,3.23 3,3.23zm6.57 0c1.99,0 2.97,-1 2.97,-3.42 0,-2.17 -0.37,-2.91 -2.01,-4.22l-0.9 -0.74c-0.41,-0.29 -0.5,-0.66 -0.5,-1.53 0,-0.55 0.05,-1.14 0.51,-1.14 0.56,0 0.52,0.85 0.5,2.27l2.38 -0.56c0.02,-0.26 0.02,-0.51 0.02,-0.75 0,-2.18 -0.96,-3.19 -2.9,-3.19 -1.93,0 -2.89,0.97 -2.89,3.19 0,2.25 0.26,2.87 1.77,4.06l1.03 0.84c0.43,0.32 0.59,0.61 0.59,1.85 0,0.61 -0.09,1.09 -0.5,1.09 -0.57,0 -0.53,-0.87 -0.51,-2.31l-2.38 0.54 0 0.81c0.07,1.92 0.75,3.21 2.82,3.21zm-35.11 8.08c0,-3.34 -1.64,-4.43 -4.18,-4.43l-4.3 0 0 18.14 3.34 0 0 -7.72 0.68 0c2.72,0 4.46,-0.96 4.46,-4.43l0 -1.56zm-3.35 1.35c0,0.83 -0.49,1.24 -1.06,1.24l-0.73 0 0 -3.57 0.73 0c0.54,0 1.06,0.36 1.06,1.11l0 1.22zm11.48 4.02c1.04,-0.62 1.64,-1.79 1.64,-3.81l0 -1.56c0,-3.34 -1.64,-4.43 -4.18,-4.43l-4.3 0 0 18.14 3.34 0 0 -7.72 0.34 0 2.1 7.72 3.42 0 -2.36 -8.34zm-2.77 -6.35c0.54,0 1.06,0.36 1.06,1.11l0 1.22c0,0.83 -0.49,1.24 -1.06,1.24l-0.73 0 0 -3.57 0.73 0zm9.61 14.69l0 -18.14 -3.36 0 0 18.14 3.36 0zm5.16 0l-0.1 -10.54 -0.05 -0.58 0.05 0 0.1 0.55 1.61 10.57 2.8 0 1.63 -10.54 0.1 -0.55 0.05 0 -0.02 0.55 -0.11 10.54 3.09 0 0 -18.14 -4.67 0 -1.32 10.68 -0.1 1.42 -0.03 0 -0.1 -1.42 -1.43 -10.68 -4.58 0 0 18.14 3.08 0zm18.45 0l0 -3.21 -3.89 0 0 -4.85 3.17 0 0 -3.21 -3.17 0 0 -3.65 3.89 0 0 -3.22 -7.23 0 0 18.14 7.23 0z"></path>
  <g id="_1700213308672">
   <g>
    <path id="path4423" class="fil0" d="M3.97 3.77l0 2.17 -0.7 0 0 -2.73 1.43 0c0.61,0 0.82,0.43 0.82,0.82l0 1.91 -0.69 0 0 -1.91c0,-0.16 -0.09,-0.26 -0.29,-0.26l-0.57 0zm4.7 -0.04c-0.23,0 -0.42,0.12 -0.49,0.29 -0.05,0.1 -0.06,0.18 -0.07,0.3l1.07 0c-0.02,-0.3 -0.15,-0.59 -0.51,-0.59zm-0.56 1.06c0,0.35 0.22,0.61 0.61,0.61 0.31,0 0.46,-0.08 0.64,-0.26l0.43 0.41c-0.28,0.27 -0.57,0.43 -1.07,0.43 -0.66,0 -1.3,-0.36 -1.3,-1.41 0,-0.9 0.56,-1.41 1.28,-1.41 0.74,0 1.17,0.6 1.17,1.38l0 0.25 -1.76 0 0 0zm-1.34 1.14c-0.51,-0.02 -0.74,-0.4 -0.74,-0.77l0 -2.7 0.7 0 0 0.75 0.52 0 0 0.56 -0.52 0 0 1.34c0,0.16 0.07,0.25 0.24,0.25l0.28 0 0 0.58 -0.35 0c-0.04,0 -0.08,0 -0.13,-0.01zm-4.11 -3.1l-0.7 0 0 -0.66 0.7 0 0 0.66zm-0.7 2.41l0 -2.03 0.7 0 0 2.76c-0.52,-0.05 -0.7,-0.37 -0.7,-0.73zm9.01 0.67c-0.52,-0.05 -0.7,-0.37 -0.7,-0.73l0 -3.11 0.7 0 0 3.84zm2.38 -3.62c-0.88,-2.86 -6.66,-2.98 -10.42,-0.7l0 0.26c3.86,-1.98 9.32,-1.97 9.82,0.87 0.16,0.94 -0.37,1.92 -1.31,2.48l0 0.74c1.08,-0.4 2.19,-1.64 2,-3.18 -0.02,-0.16 -0.05,-0.32 -0.09,-0.47zm-7.58 5.67c-2.46,0.13 -4.84,-0.35 -5.2,-2.27 -0.19,-1.02 0.28,-2.11 0.9,-2.78l0 -0.36c-1.11,0.97 -1.72,2.21 -1.37,3.68 0.44,1.87 2.82,2.93 6.46,2.58 1.43,-0.14 3.31,-0.6 4.62,-1.32l0 -1.02c-1.01,0.6 -2.59,1.12 -4.05,1.35 -0.45,0.07 -0.9,0.12 -1.36,0.14z"></path>
   </g>
   <path id="path4425" class="fil0" d="M11.77 2.26c-0.01,-0.02 -0.03,-0.02 -0.06,-0.02l-0.05 0 0 0.09c0.01,0 0.04,0 0.05,0 0.03,0 0.05,-0.01 0.06,-0.02 0,-0.01 0,-0.04 0,-0.05zm0.06 0.26l-0.04 0c-0.01,0 -0.01,-0.01 -0.01,-0.01l-0.07 -0.12c0,0 -0.01,0 -0.01,0l-0.03 0 0 0.11c0,0.01 -0.01,0.02 -0.02,0.02l-0.04 0c-0.01,0 -0.02,-0.01 -0.02,-0.02l0 -0.3c0,-0.01 0.01,-0.02 0.03,-0.02 0.01,0 0.06,-0.01 0.08,-0.01 0.08,0 0.13,0.02 0.14,0.09 0,0.01 0,0.03 0,0.04 -0.01,0.04 -0.03,0.06 -0.06,0.07l0.07 0.13c0,0 0,0 0,0.01 0,0 0,0.01 -0.01,0.01 0,0 0,0 -0.01,0zm-0.11 -0.4c-0.13,0 -0.23,0.1 -0.23,0.23 0,0.13 0.1,0.23 0.23,0.23 0.12,0 0.23,-0.1 0.23,-0.23 0,-0.13 -0.11,-0.23 -0.23,-0.23zm0 0.51c-0.16,0 -0.28,-0.13 -0.28,-0.28 0,-0.15 0.12,-0.28 0.28,-0.28 0.15,0 0.28,0.13 0.28,0.28 0,0.15 -0.13,0.28 -0.28,0.28z"></path>
  </g>
 </g>
</svg>
